<?xml version="1.0" encoding="UTF-8"?>
<svg version="1.1" viewBox="0 0 320 320.39" xmlns="http://www.w3.org/2000/svg" xmlns:xlink="http://www.w3.org/1999/xlink">
 <rect x="-5" y="-4.805" width="330" height="330"/>
 <path d="m156.9 292.79q-19.491-0.31952-37.384-6.0708-17.574-5.7514-31.632-17.574-13.739-11.822-22.047-30.354-7.988-18.852-8.3075-45.052 0-13.42-0.31952-29.396-0.31952-16.295-0.63904-32.91-0.63904-16.615-1.2781-31.313-0.95856-15.017-1.9171-25.242-0.95855-7.3489-1.5976-11.822-0.63904-4.4733 1.5976-6.0709 3.5147-2.2366 8.3075-6.3904 5.1123-4.4733 9.5856-9.5856 4.4733-5.1123 6.3904-9.2661 1.5976-3.5147 3.8342-3.5147 2.5562 0 3.5147 6.3904 1.5976 11.503 1.9171 27.479 0.31952 15.976 0.31952 34.189 0 18.213 0 36.745 0 18.213 0.95856 34.189 0.95855 17.574 6.7099 31.952 5.7513 14.378 15.656 25.242 10.225 10.544 23.325 17.574 16.615 8.627 37.384 11.183 20.769 2.5562 44.094-1.5976 23.325-4.1537 47.289-14.698 2.8757-1.5976 4.1538-0.63904 1.5976 0.95857 0.31952 3.8342-11.822 26.201-40.898 39.62-28.757 13.42-69.336 13.1z" fill="#fff"/>
 <path d="m124.14 78.343a19.572 19.572 0 0 1-19.558 19.572 19.572 19.572 0 0 1-19.586-19.543 19.572 19.572 0 0 1 19.529-19.601 19.572 19.572 0 0 1 19.615 19.515" fill="#e22e00" />
</svg>
